<svg xmlns="http://www.w3.org/2000/svg" xmlns:xlink="http://www.w3.org/1999/xlink" width="80" zoomAndPan="magnify" viewBox="0 0 60 52.499999" height="70" preserveAspectRatio="xMidYMid meet" version="1.0"><defs><g/><clipPath id="72a37ac8b8"><path d="M 2.140625 31 L 16.585938 31 L 16.585938 35.71875 L 2.140625 35.71875 Z M 2.140625 31 " clip-rule="nonzero"/></clipPath><clipPath id="aedd63324d"><path d="M 2.003906 16.222656 L 31.449219 16.273438 L 31.414062 35.71875 L 1.972656 35.667969 Z M 2.003906 16.222656 " clip-rule="nonzero"/></clipPath><clipPath id="09ff52c6aa"><path d="M 1.980469 30.949219 L 31.304688 31.003906 L 31.296875 35.839844 L 1.972656 35.789062 Z M 1.980469 30.949219 " clip-rule="nonzero"/></clipPath><clipPath id="fa517855ff"><path d="M 5 16.273438 L 16.585938 16.273438 L 16.585938 30 L 5 30 Z M 5 16.273438 " clip-rule="nonzero"/></clipPath><clipPath id="3a6733d7cc"><path d="M 2.003906 16.222656 L 31.449219 16.273438 L 31.414062 35.71875 L 1.972656 35.667969 Z M 2.003906 16.222656 " clip-rule="nonzero"/></clipPath><clipPath id="781a0fa04d"><path d="M 17.660156 14.195312 L 19.042969 14.195312 L 19.042969 36.695312 L 17.660156 36.695312 Z M 17.660156 14.195312 " clip-rule="nonzero"/></clipPath><linearGradient x1="-0.0574083" gradientTransform="matrix(0, 49.181907, -49.181907, 0, 18.073864, 17.020366)" y1="0" x2="0.40007" gradientUnits="userSpaceOnUse" y2="0" id="0ccab1d365"><stop stop-opacity="1" stop-color="rgb(92.199707%, 56.898499%, 7.499695%)" offset="0"/><stop stop-opacity="1" stop-color="rgb(92.199707%, 56.898499%, 7.499695%)" offset="0.125"/><stop stop-opacity="1" stop-color="rgb(92.199707%, 57.020569%, 7.499695%)" offset="0.132812"/><stop stop-opacity="1" stop-color="rgb(92.259216%, 57.281494%, 7.417297%)" offset="0.140625"/><stop stop-opacity="1" stop-color="rgb(92.448425%, 57.588196%, 7.217407%)" offset="0.148438"/><stop stop-opacity="1" stop-color="rgb(92.735291%, 58.071899%, 7.099915%)" offset="0.152344"/><stop stop-opacity="1" stop-color="rgb(92.893982%, 58.389282%, 7.099915%)" offset="0.15625"/><stop stop-opacity="1" stop-color="rgb(92.901611%, 58.805847%, 7.093811%)" offset="0.160156"/><stop stop-opacity="1" stop-color="rgb(92.910767%, 59.222412%, 7.087708%)" offset="0.164062"/><stop stop-opacity="1" stop-color="rgb(93.069458%, 59.538269%, 6.929016%)" offset="0.167969"/><stop stop-opacity="1" stop-color="rgb(93.228149%, 59.855652%, 6.770325%)" offset="0.171875"/><stop stop-opacity="1" stop-color="rgb(93.263245%, 60.049438%, 6.733704%)" offset="0.179687"/><stop stop-opacity="1" stop-color="rgb(93.299866%, 60.482788%, 6.698608%)" offset="0.183594"/><stop stop-opacity="1" stop-color="rgb(93.299866%, 60.722351%, 6.698608%)" offset="0.1875"/><stop stop-opacity="1" stop-color="rgb(93.338013%, 61.038208%, 6.658936%)" offset="0.191406"/><stop stop-opacity="1" stop-color="rgb(93.377686%, 61.355591%, 6.620789%)" offset="0.195312"/><stop stop-opacity="1" stop-color="rgb(93.534851%, 61.671448%, 6.462097%)" offset="0.199219"/><stop stop-opacity="1" stop-color="rgb(93.693542%, 61.988831%, 6.304932%)" offset="0.203125"/><stop stop-opacity="1" stop-color="rgb(93.696594%, 62.149048%, 6.30188%)" offset="0.210937"/><stop stop-opacity="1" stop-color="rgb(93.812561%, 62.553406%, 6.298828%)" offset="0.214844"/><stop stop-opacity="1" stop-color="rgb(93.927002%, 62.797546%, 6.298828%)" offset="0.21875"/><stop stop-opacity="1" stop-color="rgb(94.012451%, 63.020325%, 6.227112%)" offset="0.222656"/><stop stop-opacity="1" stop-color="rgb(94.099426%, 63.243103%, 6.155396%)" offset="0.226562"/><stop stop-opacity="1" stop-color="rgb(94.129944%, 63.432312%, 6.027222%)" offset="0.234375"/><stop stop-opacity="1" stop-color="rgb(94.317627%, 63.937378%, 5.899048%)" offset="0.238281"/><stop stop-opacity="1" stop-color="rgb(94.476318%, 64.254761%, 5.899048%)" offset="0.242187"/><stop stop-opacity="1" stop-color="rgb(94.487%, 64.424133%, 5.899048%)" offset="0.25"/><stop stop-opacity="1" stop-color="rgb(94.499207%, 64.926147%, 5.758667%)" offset="0.253906"/><stop stop-opacity="1" stop-color="rgb(94.499207%, 65.260315%, 5.618286%)" offset="0.257812"/><stop stop-opacity="1" stop-color="rgb(94.612122%, 65.492249%, 5.558777%)" offset="0.261719"/><stop stop-opacity="1" stop-color="rgb(94.726562%, 65.725708%, 5.499268%)" offset="0.265625"/><stop stop-opacity="1" stop-color="rgb(94.812012%, 65.956116%, 5.499268%)" offset="0.269531"/><stop stop-opacity="1" stop-color="rgb(94.898987%, 66.186523%, 5.499268%)" offset="0.273437"/><stop stop-opacity="1" stop-color="rgb(94.929504%, 66.473389%, 5.46875%)" offset="0.277344"/><stop stop-opacity="1" stop-color="rgb(94.960022%, 66.760254%, 5.438232%)" offset="0.28125"/><stop stop-opacity="1" stop-color="rgb(95.117188%, 66.917419%, 5.279541%)" offset="0.289062"/><stop stop-opacity="1" stop-color="rgb(95.28656%, 67.344666%, 5.110168%)" offset="0.292969"/><stop stop-opacity="1" stop-color="rgb(95.298767%, 67.61322%, 5.099487%)" offset="0.296875"/><stop stop-opacity="1" stop-color="rgb(95.404053%, 67.811584%, 5.099487%)" offset="0.300781"/><stop stop-opacity="1" stop-color="rgb(95.509338%, 68.009949%, 5.099487%)" offset="0.304687"/><stop stop-opacity="1" stop-color="rgb(95.603943%, 68.167114%, 5.0354%)" offset="0.3125"/><stop stop-opacity="1" stop-color="rgb(95.698547%, 68.505859%, 4.83551%)" offset="0.320312"/><stop stop-opacity="1" stop-color="rgb(95.698547%, 69.00177%, 4.699707%)" offset="0.324219"/><stop stop-opacity="1" stop-color="rgb(95.698547%, 69.319153%, 4.699707%)" offset="0.328125"/><stop stop-opacity="1" stop-color="rgb(95.835876%, 69.497681%, 4.699707%)" offset="0.335937"/><stop stop-opacity="1" stop-color="rgb(96.037292%, 69.929504%, 4.699707%)" offset="0.339844"/><stop stop-opacity="1" stop-color="rgb(96.099854%, 70.184326%, 4.699707%)" offset="0.34375"/><stop stop-opacity="1" stop-color="rgb(96.099854%, 70.446777%, 4.699707%)" offset="0.347656"/><stop stop-opacity="1" stop-color="rgb(96.099854%, 70.709229%, 4.699707%)" offset="0.351562"/><stop stop-opacity="1" stop-color="rgb(96.099854%, 70.887756%, 4.716492%)" offset="0.359375"/><stop stop-opacity="1" stop-color="rgb(96.11969%, 71.453857%, 4.978943%)" offset="0.363281"/><stop stop-opacity="1" stop-color="rgb(96.141052%, 71.841431%, 5.226135%)" offset="0.367187"/><stop stop-opacity="1" stop-color="rgb(96.299744%, 72.000122%, 5.700684%)" offset="0.371094"/><stop stop-opacity="1" stop-color="rgb(96.458435%, 72.158813%, 6.176758%)" offset="0.375"/><stop stop-opacity="1" stop-color="rgb(96.615601%, 72.28241%, 6.651306%)" offset="0.378906"/><stop stop-opacity="1" stop-color="rgb(96.774292%, 72.406006%, 7.125854%)" offset="0.382812"/><stop stop-opacity="1" stop-color="rgb(96.836853%, 72.644043%, 7.479858%)" offset="0.386719"/><stop stop-opacity="1" stop-color="rgb(96.899414%, 72.883606%, 7.835388%)" offset="0.390625"/><stop stop-opacity="1" stop-color="rgb(96.899414%, 73.199463%, 8.180237%)" offset="0.394531"/><stop stop-opacity="1" stop-color="rgb(96.899414%, 73.516846%, 8.525085%)" offset="0.398437"/><stop stop-opacity="1" stop-color="rgb(96.899414%, 73.820496%, 9.011841%)" offset="0.402344"/><stop stop-opacity="1" stop-color="rgb(96.899414%, 74.124146%, 9.500122%)" offset="0.40625"/><stop stop-opacity="1" stop-color="rgb(96.899414%, 74.282837%, 10.133362%)" offset="0.410156"/><stop stop-opacity="1" stop-color="rgb(96.899414%, 74.441528%, 10.766602%)" offset="0.414062"/><stop stop-opacity="1" stop-color="rgb(97.027588%, 74.598694%, 11.270142%)" offset="0.417969"/><stop stop-opacity="1" stop-color="rgb(97.157288%, 74.757385%, 11.775208%)" offset="0.421875"/><stop stop-opacity="1" stop-color="rgb(97.293091%, 75.003052%, 12.226868%)" offset="0.425781"/><stop stop-opacity="1" stop-color="rgb(97.43042%, 75.248718%, 12.680054%)" offset="0.429688"/><stop stop-opacity="1" stop-color="rgb(97.514343%, 75.564575%, 13.127136%)" offset="0.433594"/><stop stop-opacity="1" stop-color="rgb(97.599792%, 75.881958%, 13.574219%)" offset="0.4375"/><stop stop-opacity="1" stop-color="rgb(97.599792%, 76.194763%, 14.048767%)" offset="0.441406"/><stop stop-opacity="1" stop-color="rgb(97.599792%, 76.507568%, 14.523315%)" offset="0.445312"/><stop stop-opacity="1" stop-color="rgb(97.599792%, 76.664734%, 14.997864%)" offset="0.449219"/><stop stop-opacity="1" stop-color="rgb(97.599792%, 76.823425%, 15.473938%)" offset="0.453125"/><stop stop-opacity="1" stop-color="rgb(97.599792%, 76.982117%, 15.827942%)" offset="0.457031"/><stop stop-opacity="1" stop-color="rgb(97.599792%, 77.140808%, 16.181946%)" offset="0.460937"/><stop stop-opacity="1" stop-color="rgb(97.705078%, 77.297974%, 16.629028%)" offset="0.464844"/><stop stop-opacity="1" stop-color="rgb(97.810364%, 77.456665%, 17.077637%)" offset="0.46875"/><stop stop-opacity="1" stop-color="rgb(97.904968%, 77.702332%, 17.512512%)" offset="0.472656"/><stop stop-opacity="1" stop-color="rgb(97.999573%, 77.947998%, 17.948914%)" offset="0.476562"/><stop stop-opacity="1" stop-color="rgb(98.043823%, 78.218079%, 18.264771%)" offset="0.480469"/><stop stop-opacity="1" stop-color="rgb(98.0896%, 78.489685%, 18.580627%)" offset="0.484375"/><stop stop-opacity="1" stop-color="rgb(98.243713%, 78.651428%, 18.901062%)" offset="0.488281"/><stop stop-opacity="1" stop-color="rgb(98.399353%, 78.814697%, 19.221497%)" offset="0.492187"/><stop stop-opacity="1" stop-color="rgb(98.399353%, 79.130554%, 19.696045%)" offset="0.496094"/><stop stop-opacity="1" stop-color="rgb(98.399353%, 79.447937%, 20.172119%)" offset="0.5"/><stop stop-opacity="1" stop-color="rgb(98.399353%, 79.64325%, 20.646667%)" offset="0.503906"/><stop stop-opacity="1" stop-color="rgb(98.399353%, 79.840088%, 21.121216%)" offset="0.507812"/><stop stop-opacity="1" stop-color="rgb(98.477173%, 79.997253%, 21.516418%)" offset="0.511719"/><stop stop-opacity="1" stop-color="rgb(98.556519%, 80.155945%, 21.913147%)" offset="0.515625"/><stop stop-opacity="1" stop-color="rgb(98.677063%, 80.314636%, 22.219849%)" offset="0.519531"/><stop stop-opacity="1" stop-color="rgb(98.799133%, 80.473328%, 22.528076%)" offset="0.523437"/><stop stop-opacity="1" stop-color="rgb(98.799133%, 80.630493%, 22.80426%)" offset="0.527344"/><stop stop-opacity="1" stop-color="rgb(98.799133%, 80.789185%, 23.08197%)" offset="0.53125"/><stop stop-opacity="1" stop-color="rgb(98.799133%, 80.947876%, 23.550415%)" offset="0.535156"/><stop stop-opacity="1" stop-color="rgb(98.799133%, 81.106567%, 24.020386%)" offset="0.539062"/><stop stop-opacity="1" stop-color="rgb(98.799133%, 81.376648%, 24.494934%)" offset="0.542969"/><stop stop-opacity="1" stop-color="rgb(98.799133%, 81.646729%, 24.969482%)" offset="0.546875"/><stop stop-opacity="1" stop-color="rgb(98.799133%, 81.892395%, 25.37384%)" offset="0.550781"/><stop stop-opacity="1" stop-color="rgb(98.799133%, 82.139587%, 25.779724%)" offset="0.554688"/><stop stop-opacity="1" stop-color="rgb(98.799133%, 82.296753%, 26.152039%)" offset="0.558594"/><stop stop-opacity="1" stop-color="rgb(98.799133%, 82.455444%, 26.525879%)" offset="0.5625"/><stop stop-opacity="1" stop-color="rgb(98.799133%, 82.614136%, 27.076721%)" offset="0.566406"/><stop stop-opacity="1" stop-color="rgb(98.799133%, 82.772827%, 27.627563%)" offset="0.570312"/><stop stop-opacity="1" stop-color="rgb(98.799133%, 82.929993%, 27.903748%)" offset="0.574219"/><stop stop-opacity="1" stop-color="rgb(98.799133%, 83.088684%, 28.181458%)" offset="0.578125"/><stop stop-opacity="1" stop-color="rgb(98.799133%, 83.247375%, 28.649902%)" offset="0.582031"/><stop stop-opacity="1" stop-color="rgb(98.799133%, 83.406067%, 29.118347%)" offset="0.585937"/><stop stop-opacity="1" stop-color="rgb(98.799133%, 83.563232%, 29.481506%)" offset="0.589844"/><stop stop-opacity="1" stop-color="rgb(98.799133%, 83.721924%, 29.844666%)" offset="0.59375"/><stop stop-opacity="1" stop-color="rgb(98.799133%, 83.880615%, 30.371094%)" offset="0.597656"/><stop stop-opacity="1" stop-color="rgb(98.799133%, 84.039307%, 30.897522%)" offset="0.601562"/><stop stop-opacity="1" stop-color="rgb(98.826599%, 84.196472%, 31.681824%)" offset="0.605469"/><stop stop-opacity="1" stop-color="rgb(98.855591%, 84.355164%, 32.466125%)" offset="0.609375"/><stop stop-opacity="1" stop-color="rgb(99.012756%, 84.513855%, 33.216858%)" offset="0.613281"/><stop stop-opacity="1" stop-color="rgb(99.171448%, 84.672546%, 33.969116%)" offset="0.617188"/><stop stop-opacity="1" stop-color="rgb(99.185181%, 84.829712%, 34.901428%)" offset="0.621094"/><stop stop-opacity="1" stop-color="rgb(99.198914%, 84.988403%, 35.835266%)" offset="0.625"/><stop stop-opacity="1" stop-color="rgb(99.198914%, 85.147095%, 36.758423%)" offset="0.628906"/><stop stop-opacity="1" stop-color="rgb(99.198914%, 85.305786%, 37.683105%)" offset="0.632812"/><stop stop-opacity="1" stop-color="rgb(99.198914%, 85.523987%, 38.607788%)" offset="0.636719"/><stop stop-opacity="1" stop-color="rgb(99.198914%, 85.743713%, 39.533997%)" offset="0.640625"/><stop stop-opacity="1" stop-color="rgb(99.198914%, 86.04126%, 40.498352%)" offset="0.644531"/><stop stop-opacity="1" stop-color="rgb(99.198914%, 86.338806%, 41.462708%)" offset="0.648438"/><stop stop-opacity="1" stop-color="rgb(99.198914%, 86.495972%, 42.530823%)" offset="0.652344"/><stop stop-opacity="1" stop-color="rgb(99.198914%, 86.654663%, 43.598938%)" offset="0.65625"/><stop stop-opacity="1" stop-color="rgb(99.198914%, 86.949158%, 44.700623%)" offset="0.660156"/><stop stop-opacity="1" stop-color="rgb(99.198914%, 87.243652%, 45.803833%)" offset="0.664062"/><stop stop-opacity="1" stop-color="rgb(99.198914%, 87.464905%, 47.10083%)" offset="0.667969"/><stop stop-opacity="1" stop-color="rgb(99.198914%, 87.687683%, 48.397827%)" offset="0.671875"/><stop stop-opacity="1" stop-color="rgb(99.198914%, 87.948608%, 49.795532%)" offset="0.675781"/><stop stop-opacity="1" stop-color="rgb(99.198914%, 88.209534%, 51.194763%)" offset="0.679688"/><stop stop-opacity="1" stop-color="rgb(99.137878%, 88.525391%, 52.534485%)" offset="0.683594"/><stop stop-opacity="1" stop-color="rgb(99.076843%, 88.842773%, 53.874207%)" offset="0.6875"/><stop stop-opacity="1" stop-color="rgb(98.937988%, 89.15863%, 55.134583%)" offset="0.691406"/><stop stop-opacity="1" stop-color="rgb(98.799133%, 89.476013%, 56.396484%)" offset="0.695313"/><stop stop-opacity="1" stop-color="rgb(98.799133%, 89.79187%, 57.623291%)" offset="0.699219"/><stop stop-opacity="1" stop-color="rgb(98.799133%, 90.109253%, 58.850098%)" offset="0.703125"/><stop stop-opacity="1" stop-color="rgb(98.934937%, 90.42511%, 60.110474%)" offset="0.707031"/><stop stop-opacity="1" stop-color="rgb(99.07074%, 90.742493%, 61.37085%)" offset="0.710938"/><stop stop-opacity="1" stop-color="rgb(99.134827%, 91.05835%, 62.70752%)" offset="0.714844"/><stop stop-opacity="1" stop-color="rgb(99.198914%, 91.375732%, 64.044189%)" offset="0.71875"/><stop stop-opacity="1" stop-color="rgb(99.198914%, 91.679382%, 65.481567%)" offset="0.722656"/><stop stop-opacity="1" stop-color="rgb(99.198914%, 91.983032%, 66.918945%)" offset="0.726562"/><stop stop-opacity="1" stop-color="rgb(99.198914%, 92.262268%, 68.440247%)" offset="0.730469"/><stop stop-opacity="1" stop-color="rgb(99.198914%, 92.541504%, 69.963074%)" offset="0.734375"/><stop stop-opacity="1" stop-color="rgb(99.198914%, 92.857361%, 71.18988%)" offset="0.738281"/><stop stop-opacity="1" stop-color="rgb(99.198914%, 93.174744%, 72.416687%)" offset="0.742188"/><stop stop-opacity="1" stop-color="rgb(99.198914%, 93.618774%, 73.802185%)" offset="0.746094"/><stop stop-opacity="1" stop-color="rgb(99.198914%, 94.062805%, 75.187683%)" offset="0.75"/><stop stop-opacity="1" stop-color="rgb(99.198914%, 94.451904%, 76.676941%)" offset="0.753906"/><stop stop-opacity="1" stop-color="rgb(99.198914%, 94.841003%, 78.166199%)" offset="0.757812"/><stop stop-opacity="1" stop-color="rgb(99.198914%, 95.15686%, 79.664612%)" offset="0.761719"/><stop stop-opacity="1" stop-color="rgb(99.198914%, 95.474243%, 81.164551%)" offset="0.765625"/><stop stop-opacity="1" stop-color="rgb(99.201965%, 95.791626%, 82.557678%)" offset="0.769531"/><stop stop-opacity="1" stop-color="rgb(99.205017%, 96.110535%, 83.952332%)" offset="0.773438"/><stop stop-opacity="1" stop-color="rgb(99.401855%, 96.533203%, 85.978699%)" offset="0.777344"/><stop stop-opacity="1" stop-color="rgb(99.598694%, 96.955872%, 88.005066%)" offset="0.78125"/><stop stop-opacity="1" stop-color="rgb(99.598694%, 97.390747%, 89.587402%)" offset="0.785156"/><stop stop-opacity="1" stop-color="rgb(99.598694%, 97.827148%, 91.171265%)" offset="0.789063"/><stop stop-opacity="1" stop-color="rgb(99.598694%, 97.912598%, 91.960144%)" offset="0.792969"/><stop stop-opacity="1" stop-color="rgb(99.598694%, 97.999573%, 92.750549%)" offset="0.796875"/><stop stop-opacity="1" stop-color="rgb(99.598694%, 98.083496%, 93.365479%)" offset="0.800781"/><stop stop-opacity="1" stop-color="rgb(99.598694%, 98.168945%, 93.980408%)" offset="0.804688"/><stop stop-opacity="1" stop-color="rgb(99.598694%, 98.196411%, 94.059753%)" offset="0.808594"/><stop stop-opacity="1" stop-color="rgb(99.598694%, 98.225403%, 94.139099%)" offset="0.8125"/><stop stop-opacity="1" stop-color="rgb(99.598694%, 97.909546%, 92.752075%)" offset="0.816406"/><stop stop-opacity="1" stop-color="rgb(99.598694%, 97.593689%, 91.365051%)" offset="0.820312"/><stop stop-opacity="1" stop-color="rgb(99.598694%, 97.315979%, 89.822388%)" offset="0.824219"/><stop stop-opacity="1" stop-color="rgb(99.598694%, 97.039795%, 88.279724%)" offset="0.828125"/><stop stop-opacity="1" stop-color="rgb(99.479675%, 96.733093%, 86.824036%)" offset="0.832031"/><stop stop-opacity="1" stop-color="rgb(99.362183%, 96.426392%, 85.369873%)" offset="0.835938"/><stop stop-opacity="1" stop-color="rgb(99.203491%, 96.032715%, 83.964539%)" offset="0.839844"/><stop stop-opacity="1" stop-color="rgb(99.046326%, 95.639038%, 82.559204%)" offset="0.84375"/><stop stop-opacity="1" stop-color="rgb(98.957825%, 95.199585%, 81.138611%)" offset="0.847656"/><stop stop-opacity="1" stop-color="rgb(98.869324%, 94.760132%, 79.719543%)" offset="0.851562"/><stop stop-opacity="1" stop-color="rgb(99.026489%, 94.442749%, 78.175354%)" offset="0.855469"/><stop stop-opacity="1" stop-color="rgb(99.185181%, 94.126892%, 76.63269%)" offset="0.859375"/><stop stop-opacity="1" stop-color="rgb(99.191284%, 93.809509%, 75.202942%)" offset="0.863281"/><stop stop-opacity="1" stop-color="rgb(99.198914%, 93.493652%, 73.773193%)" offset="0.867188"/><stop stop-opacity="1" stop-color="rgb(99.198914%, 93.103027%, 72.05658%)" offset="0.871094"/><stop stop-opacity="1" stop-color="rgb(99.198914%, 92.713928%, 70.339966%)" offset="0.875"/><stop stop-opacity="1" stop-color="rgb(99.198914%, 92.399597%, 68.719482%)" offset="0.878906"/><stop stop-opacity="1" stop-color="rgb(99.198914%, 92.086792%, 67.098999%)" offset="0.882812"/><stop stop-opacity="1" stop-color="rgb(99.198914%, 91.714478%, 65.631104%)" offset="0.886719"/><stop stop-opacity="1" stop-color="rgb(99.198914%, 91.342163%, 64.164734%)" offset="0.890625"/><stop stop-opacity="1" stop-color="rgb(99.163818%, 90.901184%, 62.736511%)" offset="0.894531"/><stop stop-opacity="1" stop-color="rgb(99.130249%, 90.461731%, 61.308289%)" offset="0.898438"/><stop stop-opacity="1" stop-color="rgb(98.971558%, 90.144348%, 59.724426%)" offset="0.902344"/><stop stop-opacity="1" stop-color="rgb(98.812866%, 89.828491%, 58.14209%)" offset="0.90625"/><stop stop-opacity="1" stop-color="rgb(98.956299%, 89.511108%, 56.596375%)" offset="0.910156"/><stop stop-opacity="1" stop-color="rgb(99.101257%, 89.195251%, 55.052185%)" offset="0.914062"/><stop stop-opacity="1" stop-color="rgb(99.150085%, 88.877869%, 53.507996%)" offset="0.917969"/><stop stop-opacity="1" stop-color="rgb(99.198914%, 88.562012%, 51.965332%)" offset="0.921875"/><stop stop-opacity="1" stop-color="rgb(99.198914%, 88.261414%, 50.421143%)" offset="0.925781"/><stop stop-opacity="1" stop-color="rgb(99.198914%, 87.962341%, 48.878479%)" offset="0.929688"/><stop stop-opacity="1" stop-color="rgb(99.198914%, 87.652588%, 47.309875%)" offset="0.933594"/><stop stop-opacity="1" stop-color="rgb(99.198914%, 87.342834%, 45.741272%)" offset="0.9375"/><stop stop-opacity="1" stop-color="rgb(99.198914%, 86.868286%, 44.038391%)" offset="0.941406"/><stop stop-opacity="1" stop-color="rgb(99.198914%, 86.393738%, 42.337036%)" offset="0.945312"/><stop stop-opacity="1" stop-color="rgb(99.198914%, 86.061096%, 40.884399%)" offset="0.949219"/><stop stop-opacity="1" stop-color="rgb(99.198914%, 85.728455%, 39.433289%)" offset="0.953125"/><stop stop-opacity="1" stop-color="rgb(99.198914%, 85.411072%, 37.93335%)" offset="0.957031"/><stop stop-opacity="1" stop-color="rgb(99.198914%, 85.095215%, 36.433411%)" offset="0.960938"/><stop stop-opacity="1" stop-color="rgb(99.139404%, 84.719849%, 34.94873%)" offset="0.964844"/><stop stop-opacity="1" stop-color="rgb(99.081421%, 84.344482%, 33.46405%)" offset="0.96875"/><stop stop-opacity="1" stop-color="rgb(98.939514%, 83.874512%, 32.028198%)" offset="0.972656"/><stop stop-opacity="1" stop-color="rgb(98.799133%, 83.406067%, 30.592346%)" offset="0.976562"/><stop stop-opacity="1" stop-color="rgb(98.747253%, 82.955933%, 28.916931%)" offset="0.980469"/><stop stop-opacity="1" stop-color="rgb(98.696899%, 82.505798%, 27.243042%)" offset="0.984375"/><stop stop-opacity="1" stop-color="rgb(98.379517%, 81.912231%, 26.451111%)" offset="0.988281"/><stop stop-opacity="1" stop-color="rgb(98.06366%, 81.32019%, 25.65918%)" offset="0.992188"/><stop stop-opacity="1" stop-color="rgb(97.639465%, 80.548096%, 25.009155%)" offset="0.996094"/><stop stop-opacity="1" stop-color="rgb(97.216797%, 79.776001%, 24.360657%)" offset="1"/></linearGradient><clipPath id="c0bbcd6742"><path d="M 17.660156 14.195312 L 19 14.195312 L 19 36.695312 L 17.660156 36.695312 Z M 17.660156 14.195312 " clip-rule="nonzero"/></clipPath></defs><g fill="#ffffff" fill-opacity="1"><g transform="translate(19.04935, 30.064735)"><g><path d="M 5.203125 -7.28125 C 5.867188 -7.28125 6.472656 -7.125 7.015625 -6.8125 C 7.566406 -6.507812 8 -6.082031 8.3125 -5.53125 C 8.625 -4.976562 8.78125 -4.332031 8.78125 -3.59375 C 8.78125 -2.851562 8.625 -2.203125 8.3125 -1.640625 C 8 -1.085938 7.566406 -0.65625 7.015625 -0.34375 C 6.472656 -0.0390625 5.867188 0.109375 5.203125 0.109375 C 4.285156 0.109375 3.566406 -0.179688 3.046875 -0.765625 L 3.046875 2.59375 L 0.953125 2.59375 L 0.953125 -7.171875 L 2.953125 -7.171875 L 2.953125 -6.359375 C 3.460938 -6.972656 4.210938 -7.28125 5.203125 -7.28125 Z M 4.84375 -1.59375 C 5.375 -1.59375 5.8125 -1.773438 6.15625 -2.140625 C 6.5 -2.503906 6.671875 -2.988281 6.671875 -3.59375 C 6.671875 -4.195312 6.5 -4.675781 6.15625 -5.03125 C 5.8125 -5.394531 5.375 -5.578125 4.84375 -5.578125 C 4.3125 -5.578125 3.875 -5.394531 3.53125 -5.03125 C 3.1875 -4.675781 3.015625 -4.195312 3.015625 -3.59375 C 3.015625 -2.988281 3.1875 -2.503906 3.53125 -2.140625 C 3.875 -1.773438 4.3125 -1.59375 4.84375 -1.59375 Z M 4.84375 -1.59375 "/></g></g></g><g fill="#ffffff" fill-opacity="1"><g transform="translate(26.950091, 30.064735)"><g><path d="M 0.953125 -9.90625 L 3.046875 -9.90625 L 3.046875 0 L 0.953125 0 Z M 0.953125 -9.90625 "/></g></g></g><g fill="#ffffff" fill-opacity="1"><g transform="translate(29.659182, 30.064735)"><g><path d="M 3.859375 -7.28125 C 4.972656 -7.28125 5.828125 -7.015625 6.421875 -6.484375 C 7.015625 -5.960938 7.3125 -5.164062 7.3125 -4.09375 L 7.3125 0 L 5.359375 0 L 5.359375 -0.890625 C 4.972656 -0.222656 4.242188 0.109375 3.171875 0.109375 C 2.617188 0.109375 2.140625 0.015625 1.734375 -0.171875 C 1.335938 -0.359375 1.03125 -0.613281 0.8125 -0.9375 C 0.601562 -1.269531 0.5 -1.644531 0.5 -2.0625 C 0.5 -2.726562 0.75 -3.253906 1.25 -3.640625 C 1.75 -4.023438 2.523438 -4.21875 3.578125 -4.21875 L 5.234375 -4.21875 C 5.234375 -4.664062 5.09375 -5.007812 4.8125 -5.25 C 4.539062 -5.5 4.128906 -5.625 3.578125 -5.625 C 3.191406 -5.625 2.8125 -5.5625 2.4375 -5.4375 C 2.070312 -5.320312 1.765625 -5.164062 1.515625 -4.96875 L 0.765625 -6.421875 C 1.148438 -6.691406 1.613281 -6.898438 2.15625 -7.046875 C 2.707031 -7.203125 3.273438 -7.28125 3.859375 -7.28125 Z M 3.703125 -1.296875 C 4.054688 -1.296875 4.367188 -1.375 4.640625 -1.53125 C 4.921875 -1.695312 5.117188 -1.941406 5.234375 -2.265625 L 5.234375 -3 L 3.796875 -3 C 2.941406 -3 2.515625 -2.71875 2.515625 -2.15625 C 2.515625 -1.894531 2.617188 -1.6875 2.828125 -1.53125 C 3.046875 -1.375 3.335938 -1.296875 3.703125 -1.296875 Z M 3.703125 -1.296875 "/></g></g></g><g fill="#ffffff" fill-opacity="1"><g transform="translate(36.585655, 30.064735)"><g><path d="M 4.4375 0.109375 C 3.664062 0.109375 2.972656 -0.046875 2.359375 -0.359375 C 1.753906 -0.679688 1.28125 -1.117188 0.9375 -1.671875 C 0.59375 -2.234375 0.421875 -2.875 0.421875 -3.59375 C 0.421875 -4.300781 0.59375 -4.9375 0.9375 -5.5 C 1.28125 -6.0625 1.753906 -6.5 2.359375 -6.8125 C 2.972656 -7.125 3.664062 -7.28125 4.4375 -7.28125 C 5.1875 -7.28125 5.84375 -7.125 6.40625 -6.8125 C 6.976562 -6.5 7.390625 -6.046875 7.640625 -5.453125 L 6.03125 -4.59375 C 5.65625 -5.25 5.117188 -5.578125 4.421875 -5.578125 C 3.878906 -5.578125 3.425781 -5.398438 3.0625 -5.046875 C 2.707031 -4.691406 2.53125 -4.207031 2.53125 -3.59375 C 2.53125 -2.976562 2.707031 -2.488281 3.0625 -2.125 C 3.425781 -1.769531 3.878906 -1.59375 4.421875 -1.59375 C 5.128906 -1.59375 5.664062 -1.925781 6.03125 -2.59375 L 7.640625 -1.703125 C 7.390625 -1.140625 6.976562 -0.695312 6.40625 -0.375 C 5.84375 -0.0507812 5.1875 0.109375 4.4375 0.109375 Z M 4.4375 0.109375 "/></g></g></g><g fill="#ffffff" fill-opacity="1"><g transform="translate(43.165128, 30.064735)"><g><path d="M 8 -3.5625 C 8 -3.53125 7.984375 -3.34375 7.953125 -3 L 2.515625 -3 C 2.617188 -2.550781 2.851562 -2.195312 3.21875 -1.9375 C 3.582031 -1.6875 4.035156 -1.5625 4.578125 -1.5625 C 4.953125 -1.5625 5.28125 -1.613281 5.5625 -1.71875 C 5.851562 -1.832031 6.125 -2.007812 6.375 -2.25 L 7.484375 -1.046875 C 6.804688 -0.273438 5.820312 0.109375 4.53125 0.109375 C 3.71875 0.109375 3 -0.046875 2.375 -0.359375 C 1.75 -0.679688 1.265625 -1.117188 0.921875 -1.671875 C 0.585938 -2.234375 0.421875 -2.875 0.421875 -3.59375 C 0.421875 -4.289062 0.585938 -4.921875 0.921875 -5.484375 C 1.253906 -6.054688 1.710938 -6.5 2.296875 -6.8125 C 2.878906 -7.125 3.53125 -7.28125 4.25 -7.28125 C 4.957031 -7.28125 5.59375 -7.128906 6.15625 -6.828125 C 6.726562 -6.523438 7.175781 -6.09375 7.5 -5.53125 C 7.832031 -4.96875 8 -4.3125 8 -3.5625 Z M 4.265625 -5.71875 C 3.796875 -5.71875 3.398438 -5.582031 3.078125 -5.3125 C 2.765625 -5.039062 2.570312 -4.675781 2.5 -4.21875 L 6.03125 -4.21875 C 5.957031 -4.664062 5.757812 -5.023438 5.4375 -5.296875 C 5.125 -5.578125 4.734375 -5.71875 4.265625 -5.71875 Z M 4.265625 -5.71875 "/></g></g></g><g clip-path="url(#72a37ac8b8)"><g clip-path="url(#aedd63324d)"><g clip-path="url(#09ff52c6aa)"><path fill="#ffffff" d="M 20.867188 34.589844 L 12.40625 34.578125 C 12.347656 34.578125 12.308594 34.515625 12.335938 34.464844 L 12.992188 33.210938 C 13.003906 33.183594 13.03125 33.167969 13.058594 33.167969 L 20.21875 33.179688 C 20.246094 33.179688 20.273438 33.199219 20.289062 33.222656 L 20.9375 34.476562 C 20.964844 34.53125 20.925781 34.589844 20.867188 34.589844 Z M 31.113281 34.75 L 27.613281 31.242188 C 27.496094 31.121094 27.332031 31.054688 27.164062 31.054688 L 6.121094 31.015625 C 5.953125 31.015625 5.789062 31.082031 5.671875 31.203125 L 2.160156 34.699219 C 2.039062 34.820312 1.972656 34.984375 1.972656 35.152344 C 1.972656 35.503906 2.257812 35.789062 2.609375 35.789062 L 30.660156 35.839844 C 31.011719 35.839844 31.296875 35.554688 31.300781 35.203125 C 31.300781 35.035156 31.234375 34.871094 31.113281 34.75 " fill-opacity="1" fill-rule="nonzero"/></g></g></g><g clip-path="url(#fa517855ff)"><g clip-path="url(#3a6733d7cc)"><path fill="#ffffff" d="M 26.40625 16.269531 L 6.933594 16.238281 C 6.367188 16.234375 5.90625 16.695312 5.90625 17.261719 L 5.886719 28.820312 C 5.886719 29.382812 6.34375 29.847656 6.910156 29.847656 L 26.382812 29.882812 C 26.945312 29.882812 27.40625 29.421875 27.40625 28.859375 L 27.425781 17.296875 C 27.429688 16.734375 26.96875 16.273438 26.40625 16.269531 Z M 26.242188 17.457031 L 26.222656 28.695312 L 7.070312 28.660156 L 7.089844 17.421875 L 26.242188 17.457031 " fill-opacity="1" fill-rule="nonzero"/></g></g><g clip-path="url(#781a0fa04d)"><path fill="url(#0ccab1d365)" d="M 19.042969 14.195312 L 17.660156 14.195312 L 17.660156 36.695312 L 19.042969 36.695312 Z M 19.042969 14.195312 " fill-rule="nonzero"/></g><g clip-path="url(#c0bbcd6742)"><path fill="#ffffff" d="M 18.957031 69.75 L 18.957031 14.195312 L 17.1875 14.195312 L 17.1875 69.75 L 18.957031 69.75 " fill-opacity="1" fill-rule="nonzero"/></g><g fill="#ffffff" fill-opacity="1"><g transform="translate(19.04935, 20.265507)"><g><path d="M 4.1875 0.0625 C 3.507812 0.0625 2.898438 -0.0859375 2.359375 -0.390625 C 1.816406 -0.703125 1.390625 -1.128906 1.078125 -1.671875 C 0.765625 -2.210938 0.609375 -2.828125 0.609375 -3.515625 C 0.609375 -4.191406 0.765625 -4.800781 1.078125 -5.34375 C 1.390625 -5.894531 1.816406 -6.320312 2.359375 -6.625 C 2.898438 -6.925781 3.507812 -7.078125 4.1875 -7.078125 C 4.863281 -7.078125 5.472656 -6.925781 6.015625 -6.625 C 6.554688 -6.320312 6.976562 -5.894531 7.28125 -5.34375 C 7.59375 -4.800781 7.75 -4.191406 7.75 -3.515625 C 7.75 -2.828125 7.59375 -2.210938 7.28125 -1.671875 C 6.976562 -1.128906 6.554688 -0.703125 6.015625 -0.390625 C 5.472656 -0.0859375 4.863281 0.0625 4.1875 0.0625 Z M 4.1875 -0.78125 C 4.6875 -0.78125 5.132812 -0.890625 5.53125 -1.109375 C 5.925781 -1.335938 6.234375 -1.660156 6.453125 -2.078125 C 6.679688 -2.492188 6.796875 -2.972656 6.796875 -3.515625 C 6.796875 -4.046875 6.679688 -4.519531 6.453125 -4.9375 C 6.234375 -5.351562 5.925781 -5.675781 5.53125 -5.90625 C 5.132812 -6.132812 4.6875 -6.25 4.1875 -6.25 C 3.6875 -6.25 3.238281 -6.132812 2.84375 -5.90625 C 2.445312 -5.675781 2.132812 -5.351562 1.90625 -4.9375 C 1.6875 -4.519531 1.578125 -4.046875 1.578125 -3.515625 C 1.578125 -2.972656 1.6875 -2.492188 1.90625 -2.078125 C 2.132812 -1.660156 2.445312 -1.335938 2.84375 -1.109375 C 3.238281 -0.890625 3.6875 -0.78125 4.1875 -0.78125 Z M 4.1875 -0.78125 "/></g></g></g><g fill="#ffffff" fill-opacity="1"><g transform="translate(26.110386, 20.265507)"><g><path d="M 4.890625 -7.078125 C 5.773438 -7.078125 6.476562 -6.816406 7 -6.296875 C 7.519531 -5.785156 7.78125 -5.039062 7.78125 -4.0625 L 7.78125 0 L 6.828125 0 L 6.828125 -3.96875 C 6.828125 -4.707031 6.644531 -5.265625 6.28125 -5.640625 C 5.914062 -6.023438 5.394531 -6.21875 4.71875 -6.21875 C 3.96875 -6.21875 3.367188 -5.992188 2.921875 -5.546875 C 2.484375 -5.097656 2.265625 -4.476562 2.265625 -3.6875 L 2.265625 0 L 1.328125 0 L 1.328125 -7.015625 L 2.234375 -7.015625 L 2.234375 -5.71875 C 2.484375 -6.144531 2.835938 -6.476562 3.296875 -6.71875 C 3.753906 -6.957031 4.285156 -7.078125 4.890625 -7.078125 Z M 4.890625 -7.078125 "/></g></g></g><g fill="#ffffff" fill-opacity="1"><g transform="translate(33.838818, 20.265507)"><g><path d="M 7.4375 -3.21875 L 1.5625 -3.21875 C 1.613281 -2.488281 1.890625 -1.898438 2.390625 -1.453125 C 2.898438 -1.003906 3.546875 -0.78125 4.328125 -0.78125 C 4.765625 -0.78125 5.164062 -0.851562 5.53125 -1 C 5.894531 -1.15625 6.207031 -1.382812 6.46875 -1.6875 L 7 -1.078125 C 6.6875 -0.703125 6.296875 -0.414062 5.828125 -0.21875 C 5.367188 -0.03125 4.859375 0.0625 4.296875 0.0625 C 3.578125 0.0625 2.9375 -0.0859375 2.375 -0.390625 C 1.820312 -0.703125 1.390625 -1.128906 1.078125 -1.671875 C 0.765625 -2.210938 0.609375 -2.828125 0.609375 -3.515625 C 0.609375 -4.191406 0.757812 -4.800781 1.0625 -5.34375 C 1.363281 -5.894531 1.769531 -6.320312 2.28125 -6.625 C 2.800781 -6.925781 3.390625 -7.078125 4.046875 -7.078125 C 4.691406 -7.078125 5.269531 -6.925781 5.78125 -6.625 C 6.300781 -6.320312 6.707031 -5.898438 7 -5.359375 C 7.300781 -4.816406 7.453125 -4.203125 7.453125 -3.515625 Z M 4.046875 -6.265625 C 3.367188 -6.265625 2.800781 -6.046875 2.34375 -5.609375 C 1.882812 -5.179688 1.625 -4.617188 1.5625 -3.921875 L 6.53125 -3.921875 C 6.46875 -4.617188 6.207031 -5.179688 5.75 -5.609375 C 5.300781 -6.046875 4.734375 -6.265625 4.046875 -6.265625 Z M 4.046875 -6.265625 "/></g></g></g><g fill="#ffffff" fill-opacity="1"><g transform="translate(20.160445, 36.380444)"><g><path d="M 1.4375 0.015625 C 1.195312 0.015625 0.976562 -0.0351562 0.78125 -0.140625 C 0.59375 -0.242188 0.441406 -0.390625 0.328125 -0.578125 C 0.222656 -0.765625 0.171875 -0.972656 0.171875 -1.203125 C 0.171875 -1.441406 0.222656 -1.65625 0.328125 -1.84375 C 0.441406 -2.03125 0.597656 -2.175781 0.796875 -2.28125 C 0.992188 -2.382812 1.210938 -2.4375 1.453125 -2.4375 C 1.628906 -2.4375 1.789062 -2.40625 1.9375 -2.34375 C 2.09375 -2.289062 2.222656 -2.203125 2.328125 -2.078125 L 2.171875 -1.921875 C 1.984375 -2.109375 1.742188 -2.203125 1.453125 -2.203125 C 1.265625 -2.203125 1.09375 -2.160156 0.9375 -2.078125 C 0.78125 -1.992188 0.65625 -1.875 0.5625 -1.71875 C 0.476562 -1.5625 0.4375 -1.390625 0.4375 -1.203125 C 0.4375 -1.015625 0.476562 -0.84375 0.5625 -0.6875 C 0.65625 -0.539062 0.78125 -0.421875 0.9375 -0.328125 C 1.09375 -0.242188 1.265625 -0.203125 1.453125 -0.203125 C 1.742188 -0.203125 1.984375 -0.300781 2.171875 -0.5 L 2.328125 -0.328125 C 2.222656 -0.210938 2.09375 -0.125 1.9375 -0.0625 C 1.789062 -0.0078125 1.625 0.015625 1.4375 0.015625 Z M 1.4375 0.015625 "/></g></g></g><g fill="#ffffff" fill-opacity="1"><g transform="translate(24.713752, 36.380444)"><g><path d="M 1.453125 0.015625 C 1.210938 0.015625 0.992188 -0.0351562 0.796875 -0.140625 C 0.597656 -0.242188 0.441406 -0.390625 0.328125 -0.578125 C 0.222656 -0.765625 0.171875 -0.972656 0.171875 -1.203125 C 0.171875 -1.441406 0.222656 -1.648438 0.328125 -1.828125 C 0.441406 -2.015625 0.597656 -2.160156 0.796875 -2.265625 C 0.992188 -2.378906 1.210938 -2.4375 1.453125 -2.4375 C 1.691406 -2.4375 1.90625 -2.382812 2.09375 -2.28125 C 2.289062 -2.175781 2.441406 -2.03125 2.546875 -1.84375 C 2.660156 -1.65625 2.71875 -1.441406 2.71875 -1.203125 C 2.71875 -0.972656 2.660156 -0.765625 2.546875 -0.578125 C 2.441406 -0.390625 2.289062 -0.242188 2.09375 -0.140625 C 1.90625 -0.0351562 1.691406 0.015625 1.453125 0.015625 Z M 1.453125 -0.203125 C 1.640625 -0.203125 1.8125 -0.242188 1.96875 -0.328125 C 2.125 -0.421875 2.242188 -0.539062 2.328125 -0.6875 C 2.421875 -0.84375 2.46875 -1.015625 2.46875 -1.203125 C 2.46875 -1.390625 2.421875 -1.5625 2.328125 -1.71875 C 2.242188 -1.875 2.125 -1.992188 1.96875 -2.078125 C 1.8125 -2.160156 1.640625 -2.203125 1.453125 -2.203125 C 1.253906 -2.203125 1.078125 -2.160156 0.921875 -2.078125 C 0.773438 -1.992188 0.65625 -1.875 0.5625 -1.71875 C 0.476562 -1.5625 0.4375 -1.390625 0.4375 -1.203125 C 0.4375 -1.015625 0.476562 -0.84375 0.5625 -0.6875 C 0.65625 -0.539062 0.773438 -0.421875 0.921875 -0.328125 C 1.078125 -0.242188 1.253906 -0.203125 1.453125 -0.203125 Z M 1.453125 -0.203125 "/></g></g></g><g fill="#ffffff" fill-opacity="1"><g transform="translate(29.682154, 36.380444)"><g><path d="M 2.90625 -2.421875 L 2.90625 0 L 2.65625 0 L 2.65625 -1.9375 L 1.703125 -0.3125 L 1.59375 -0.3125 L 0.640625 -1.921875 L 0.640625 0 L 0.390625 0 L 0.390625 -2.421875 L 0.609375 -2.421875 L 1.65625 -0.625 L 2.6875 -2.421875 Z M 2.90625 -2.421875 "/></g></g></g><g fill="#ffffff" fill-opacity="1"><g transform="translate(35.051815, 36.380444)"><g><path d="M 1.296875 -2.421875 C 1.609375 -2.421875 1.847656 -2.34375 2.015625 -2.1875 C 2.191406 -2.039062 2.28125 -1.84375 2.28125 -1.59375 C 2.28125 -1.332031 2.191406 -1.128906 2.015625 -0.984375 C 1.847656 -0.835938 1.609375 -0.765625 1.296875 -0.765625 L 0.65625 -0.765625 L 0.65625 0 L 0.390625 0 L 0.390625 -2.421875 Z M 1.296875 -0.984375 C 1.535156 -0.984375 1.71875 -1.035156 1.84375 -1.140625 C 1.96875 -1.242188 2.03125 -1.394531 2.03125 -1.59375 C 2.03125 -1.78125 1.96875 -1.925781 1.84375 -2.03125 C 1.71875 -2.144531 1.535156 -2.203125 1.296875 -2.203125 L 0.65625 -2.203125 L 0.65625 -0.984375 Z M 1.296875 -0.984375 "/></g></g></g><g fill="#ffffff" fill-opacity="1"><g transform="translate(39.601661, 36.380444)"><g><path d="M 1.375 0.015625 C 1.050781 0.015625 0.800781 -0.0703125 0.625 -0.25 C 0.457031 -0.425781 0.375 -0.6875 0.375 -1.03125 L 0.375 -2.421875 L 0.625 -2.421875 L 0.625 -1.046875 C 0.625 -0.765625 0.6875 -0.550781 0.8125 -0.40625 C 0.945312 -0.269531 1.132812 -0.203125 1.375 -0.203125 C 1.613281 -0.203125 1.796875 -0.269531 1.921875 -0.40625 C 2.046875 -0.550781 2.109375 -0.765625 2.109375 -1.046875 L 2.109375 -2.421875 L 2.359375 -2.421875 L 2.359375 -1.03125 C 2.359375 -0.6875 2.269531 -0.425781 2.09375 -0.25 C 1.925781 -0.0703125 1.6875 0.015625 1.375 0.015625 Z M 1.375 0.015625 "/></g></g></g><g fill="#ffffff" fill-opacity="1"><g transform="translate(44.407483, 36.380444)"><g><path d="M 0.859375 -2.203125 L 0.015625 -2.203125 L 0.015625 -2.421875 L 1.96875 -2.421875 L 1.96875 -2.203125 L 1.125 -2.203125 L 1.125 0 L 0.859375 0 Z M 0.859375 -2.203125 "/></g></g></g><g fill="#ffffff" fill-opacity="1"><g transform="translate(48.459214, 36.380444)"><g><path d="M 2.109375 -0.21875 L 2.109375 0 L 0.390625 0 L 0.390625 -2.421875 L 2.046875 -2.421875 L 2.046875 -2.203125 L 0.65625 -2.203125 L 0.65625 -1.34375 L 1.90625 -1.34375 L 1.90625 -1.125 L 0.65625 -1.125 L 0.65625 -0.21875 Z M 2.109375 -0.21875 "/></g></g></g><g fill="#ffffff" fill-opacity="1"><g transform="translate(52.839564, 36.380444)"><g><path d="M 2.046875 0 L 1.484375 -0.78125 C 1.429688 -0.769531 1.367188 -0.765625 1.296875 -0.765625 L 0.65625 -0.765625 L 0.65625 0 L 0.390625 0 L 0.390625 -2.421875 L 1.296875 -2.421875 C 1.609375 -2.421875 1.847656 -2.34375 2.015625 -2.1875 C 2.191406 -2.039062 2.28125 -1.84375 2.28125 -1.59375 C 2.28125 -1.40625 2.234375 -1.242188 2.140625 -1.109375 C 2.046875 -0.984375 1.910156 -0.890625 1.734375 -0.828125 L 2.328125 0 Z M 1.296875 -0.984375 C 1.535156 -0.984375 1.71875 -1.035156 1.84375 -1.140625 C 1.96875 -1.242188 2.03125 -1.394531 2.03125 -1.59375 C 2.03125 -1.78125 1.96875 -1.925781 1.84375 -2.03125 C 1.71875 -2.144531 1.535156 -2.203125 1.296875 -2.203125 L 0.65625 -2.203125 L 0.65625 -0.984375 Z M 1.296875 -0.984375 "/></g></g></g></svg>